<?xml version="1.0" standalone="no"?>
<!DOCTYPE svg PUBLIC "-//W3C//DTD SVG 20010904//EN"
 "http://www.w3.org/TR/2001/REC-SVG-20010904/DTD/svg10.dtd">
<svg version="1.0" xmlns="http://www.w3.org/2000/svg"
 width="2071.000000pt" height="2071.000000pt" viewBox="0 0 2071.000000 2071.000000"
 preserveAspectRatio="xMidYMid meet">

<g transform="translate(0.000000,2071.000000) scale(0.100000,-0.100000)"
fill="#000000" stroke="none">
<path d="M9970 20704 c-457 -24 -713 -47 -1027 -89 -2663 -361 -5094 -1762
-6755 -3892 -1210 -1550 -1948 -3396 -2137 -5344 -38 -390 -46 -557 -45 -1029
0 -544 18 -846 79 -1325 261 -2033 1117 -3930 2477 -5488 1107 -1269 2529
-2258 4113 -2862 2064 -786 4372 -886 6510 -280 2554 723 4742 2415 6097 4715
587 996 994 2063 1223 3205 383 1913 219 3912 -470 5720 -768 2016 -2141 3738
-3935 4934 -908 606 -1876 1054 -2907 1347 -707 201 -1374 315 -2178 374 -139
10 -920 21 -1045 14z m6535 -3483 c-17 -15 -113 -104 -215 -197 -205 -186
-473 -450 -513 -504 -40 -54 -57 -137 -57 -275 0 -136 21 -330 43 -391 8 -22
43 -101 76 -174 68 -147 141 -355 165 -470 42 -208 46 -409 16 -805 -25 -328
-25 -529 0 -886 56 -808 82 -1487 84 -2239 1 -507 -1 -573 -17 -647 -49 -226
-140 -334 -309 -364 -102 -18 -444 8 -504 39 -98 50 -213 232 -245 385 -33
162 -42 395 -36 917 3 267 11 559 16 650 14 217 48 906 62 1240 6 146 14 582
19 970 10 876 3 821 160 1150 112 236 125 276 124 410 0 88 -4 115 -25 165
-13 33 -29 60 -36 60 -18 0 -1765 -1338 -1939 -1484 -89 -75 -134 -146 -134
-211 0 -58 36 -170 101 -317 203 -457 282 -826 266 -1249 -20 -533 -171 -928
-484 -1263 -126 -135 -351 -333 -553 -487 -231 -175 -348 -274 -443 -373 -266
-279 -376 -553 -347 -864 18 -189 79 -349 185 -487 25 -32 113 -123 195 -202
112 -107 175 -158 248 -202 522 -315 757 -490 1028 -767 219 -224 365 -423
493 -669 207 -400 290 -771 278 -1239 -6 -238 -24 -376 -77 -587 -260 -1028
-1189 -1781 -2649 -2149 -291 -73 -632 -133 -891 -156 -187 -16 -639 0 -990
37 -1422 147 -2429 613 -2905 1347 -290 447 -391 1076 -256 1600 169 653 713
1176 1616 1552 709 295 1653 495 2653 560 56 4 102 9 102 12 0 3 -23 30 -51
61 -116 129 -248 361 -308 540 -61 184 -75 275 -75 502 0 185 3 218 27 332 15
70 43 171 62 225 19 54 35 99 35 101 0 1 -84 2 -187 2 -1199 0 -2083 404
-2609 1192 -92 137 -227 409 -288 578 -102 287 -163 594 -182 918 l-7 122
-1449 0 c-864 0 -1448 4 -1446 9 2 5 1020 910 2263 2010 l2260 2001 3840 0
3840 0 -30 -29z"/>
<path d="M9895 15514 c-22 -2 -83 -11 -135 -20 -429 -74 -793 -366 -1004 -804
-98 -204 -169 -459 -195 -702 -16 -141 -13 -472 4 -623 59 -511 245 -1016 534
-1453 126 -190 215 -297 385 -468 348 -348 695 -547 1107 -635 140 -30 420
-33 549 -6 513 109 895 472 1080 1025 133 396 156 875 65 1342 -154 786 -587
1502 -1178 1944 -260 194 -571 334 -847 380 -98 16 -295 27 -365 20z"/>
<path d="M10143 8220 c-280 -21 -575 -78 -823 -160 -839 -275 -1404 -826
-1552 -1514 -32 -150 -32 -445 0 -603 102 -507 441 -967 962 -1306 410 -267
899 -437 1450 -504 201 -24 628 -24 830 0 650 79 1202 309 1628 681 261 227
468 542 555 846 57 197 76 463 48 655 -114 762 -770 1426 -1712 1733 -252 82
-504 136 -764 161 -156 16 -479 21 -622 11z"/>
</g>
</svg>
